<?xml version="1.0" encoding="iso-8859-1"?>
<!-- Uploaded to: SVG Repo, www.svgrepo.com, Generator: SVG Repo Mixer Tools -->
<svg version="1.1" id="Layer_1" xmlns="http://www.w3.org/2000/svg" xmlns:xlink="http://www.w3.org/1999/xlink" 
	 viewBox="0 0 512 512" xml:space="preserve">
<rect x="19.862" y="351.228" style="fill:#FFD578;" width="122.382" height="113.65"/>
<rect x="49.07" y="399.932" style="fill:#5D5D5D;" width="64.49" height="64.64"/>
<rect x="7.58" y="327.962" style="fill:#F7B737;" width="146.941" height="23.266"/>
<path style="fill:#174F79;" d="M50.875,132.013l20.362-93.919c0.634-2.922,4.395-3.769,6.22-1.4l17.965,23.329
	c6.43,8.35,8.851,19.11,6.618,29.408l0,0c-2.165,9.986,4.175,19.836,14.161,22.002l34.768,7.538l27.614,73.233L50.875,132.013z"/>
<path style="fill:#73AFD6;" d="M219.286,264.436l-83.135-18.023c-15.405-3.34-28.935-12.475-37.792-25.514l-49.289-74.97
	l44.366,9.619l338.071,73.295c17.73,3.844,30.122,18.93,31.329,36.159c0.457,6.525,5.064,12.006,11.457,13.391l0,0
	c10.505,2.277,17.237,12.736,14.959,23.241l-0.276,1.274c-2.277,10.505-12.736,17.237-23.241,14.959l-51.126-11.084l-24.857-5.389
	l-97.005-21.031L219.286,264.436z"/>
<g>
	<path style="fill:#D3EFFD;" d="M120.995,161.52l-93.146-20.194c-5.905-1.281-9.69-7.16-8.41-13.066l0,0
		c1.281-5.905,7.16-9.69,13.066-8.41l93.146,20.194c5.905,1.281,9.69,7.16,8.41,13.066l0,0
		C132.781,159.017,126.901,162.801,120.995,161.52z"/>
	<path style="fill:#D3EFFD;" d="M327.938,241.247l-130.282-28.245c-5.905-1.281-9.69-7.16-8.41-13.066l0,0
		c1.281-5.905,7.16-9.69,13.066-8.41l130.282,28.245c5.905,1.281,9.69,7.16,8.41,13.066l0,0
		C339.723,238.742,333.844,242.526,327.938,241.247z"/>
</g>
<path style="fill:#174F79;" d="M287.424,304.914l-40.712-8.826c-18.771-4.07-30.799-22.757-26.729-41.528l0,0
	c4.07-18.771,22.757-30.799,41.528-26.729l40.712,8.826L287.424,304.914z"/>
<g style="opacity:0.63;">
	
		<rect x="269.293" y="233.14" transform="matrix(-0.9773 -0.2119 0.2119 -0.9773 501.1941 589.8383)" style="fill:#73AFD6;" width="25.819" height="69.848"/>
</g>
<path style="fill:#D3EFFD;" d="M474.094,277.733c-6.392-1.386-11-6.866-11.457-13.391c-1.208-17.23-13.599-32.315-31.33-36.159
	l-15.805-3.426l-8.339,38.467L474.094,277.733z"/>
<rect x="7.58" y="449.141" style="fill:#5D5D5D;" width="496.845" height="32.165"/>
<g>
	<circle style="fill:#174F79;" cx="192.815" cy="302.493" r="19.75"/>
	<circle style="fill:#174F79;" cx="413.576" cy="331.469" r="19.749"/>
</g>
<path d="M26.244,148.734l17.93,3.887c0.065,1.347,0.48,2.693,1.293,3.89l46.622,68.645c9.995,14.714,25.073,24.894,42.456,28.663
	l68.747,14.904c-2.486,2.262-4.942,4.497-6.808,6.199c-0.165,0.15-0.318,0.291-0.476,0.436c-0.57-0.066-1.143-0.121-1.721-0.153
	c-15.028-0.812-27.949,10.776-28.758,25.824c-0.392,7.289,2.079,14.296,6.956,19.727c4.877,5.431,11.578,8.638,18.868,9.03
	c0.501,0.027,1.002,0.04,1.501,0.04c6.745,0,13.168-2.455,18.225-6.996c5.43-4.877,8.638-11.578,9.03-18.867
	c0.392-7.29-2.078-14.296-6.955-19.728c-0.663-0.739-1.363-1.433-2.092-2.088c1.254-1.141,2.592-2.359,3.96-3.602
	c0.942,2.198,2.063,4.338,3.385,6.391c6.16,9.569,15.642,16.16,26.699,18.556l15.477,3.355c0.001,0,0.002,0,0.002,0.001
	s0.001,0,0.002,0l25.23,5.47c0.532,0.115,1.07,0.172,1.606,0.172c1.444,0,2.87-0.412,4.103-1.206
	c1.69-1.088,2.879-2.803,3.306-4.768l3.716-17.144l97.497,21.138c-0.246,0.206-0.492,0.41-0.732,0.626
	c-5.432,4.877-8.639,11.578-9.031,18.868c-0.809,15.048,10.776,27.948,25.825,28.758c0.501,0.027,1.002,0.04,1.5,0.04
	c6.745,0,13.168-2.455,18.226-6.997c5.431-4.877,8.638-11.578,9.03-18.867c0.255-4.747-0.726-9.279-2.657-13.286l25.921,5.619
	c1.928,0.418,3.854,0.619,5.752,0.619c12.486,0,23.752-8.692,26.504-21.38l0.276-1.275c3.168-14.616-6.146-29.086-20.761-32.255
	c-3.064-0.665-5.276-3.283-5.502-6.514c-1.464-20.899-16.797-38.595-37.286-43.037l-15.799-3.425c-0.002,0-0.004-0.001-0.006-0.002
	s-0.004-0.001-0.006-0.001l-240.554-52.153l-18.685-49.554c-0.907-2.406-2.972-4.189-5.487-4.734l-34.768-7.538
	c-5.885-1.276-9.636-7.103-8.359-12.988c2.713-12.507-0.211-25.498-8.021-35.64L78.846,26.074c-1.799-2.337-4.789-3.417-7.67-2.77
	c-2.878,0.648-5.118,2.906-5.745,5.789l-18.666,86.094l-12.656-2.744c-4.834-1.046-9.797-0.145-13.976,2.544
	c-4.178,2.689-7.055,6.832-8.105,11.667s-0.145,9.798,2.545,13.977C17.265,144.809,21.409,147.686,26.244,148.734z M204.973,303.149
	C204.973,303.149,204.973,303.15,204.973,303.149c-0.175,3.246-1.603,6.231-4.021,8.403c-2.42,2.172-5.526,3.272-8.784,3.097
	c-3.246-0.174-6.23-1.602-8.402-4.021c-2.171-2.419-3.272-5.538-3.097-8.785c0.349-6.479,5.73-11.517,12.146-11.517
	c0.218,0,0.44,0.006,0.66,0.018c3.246,0.174,6.23,1.602,8.402,4.021C204.048,296.784,205.147,299.904,204.973,303.149z
	 M425.727,332.127c-0.175,3.245-1.603,6.23-4.021,8.402c-2.42,2.172-5.531,3.268-8.784,3.098
	c-6.701-0.36-11.859-6.105-11.499-12.805c0.175-3.246,1.603-6.23,4.021-8.402c2.253-2.022,5.113-3.116,8.117-3.116
	c0.222,0,0.444,0.006,0.668,0.018C420.929,319.681,426.088,325.426,425.727,332.127z M104.63,216.639l-40.548-59.701l55.307,11.991
	c0.003,0.001,0.005,0.001,0.008,0.001l73.909,16.024c-5.628,2.18-10.096,7.047-11.468,13.376
	c-2.169,10.005,4.206,19.91,14.213,22.079l33.133,7.183c-8.513,6.153-14.377,15.073-16.607,25.362
	c-0.158,0.727-0.293,1.453-0.412,2.182l-74.406-16.131C124.193,236.063,112.428,228.12,104.63,216.639z M199.262,205.593
	c-1.805-0.391-3-2.247-2.609-4.051c0.342-1.574,1.794-2.682,3.357-2.682c0.23,0,0.463,0.023,0.695,0.074l130.282,28.245
	c1.805,0.391,3,2.247,2.609,4.051c-0.392,1.805-2.252,3.001-4.052,2.609h-0.001L199.262,205.593z M231.156,276.734
	c-2.488-3.868-3.942-8.183-4.298-12.616c-0.001-0.036-0.004-0.072-0.006-0.108c-0.005-0.062-0.006-0.123-0.011-0.185
	c-0.002-0.024-0.002-0.049-0.004-0.073c-0.169-2.515,0.008-5.063,0.556-7.587c1.538-7.099,5.781-13.194,11.945-17.162
	c4.495-2.894,9.597-4.388,14.784-4.388c1.924,0,3.862,0.206,5.784,0.623l8.071,1.75l-11.586,53.442l-8.072-1.749
	C241.219,287.14,235.124,282.897,231.156,276.734z M271.207,293.642l11.586-53.442l10.416,2.258l-7.867,36.288
	c0,0.003-0.002,0.006-0.002,0.009s-0.001,0.006-0.001,0.009l-3.714,17.134L271.207,293.642z M481.846,300.026l-0.276,1.274
	c-1.398,6.447-7.782,10.552-14.227,9.158l-165.58-35.898l6.467-29.831l18.103,3.924c1.322,0.286,2.638,0.423,3.938,0.423
	c8.545-0.001,16.259-5.95,18.143-14.635c1.371-6.327-0.681-12.608-4.9-16.924l63.176,13.697l-6.734,31.059
	c-0.425,1.965-0.054,4.018,1.034,5.708c1.087,1.691,2.803,2.879,4.768,3.306l66.932,14.511
	C479.135,287.197,483.243,293.579,481.846,300.026z M455.276,265.529c0.023,0.34,0.074,0.672,0.112,1.008l-39.012-8.458
	l5.128-23.651l8.397,1.82C443.844,239.271,454.279,251.312,455.276,265.529z M76.791,48.252l12.624,16.395
	c5.079,6.596,6.98,15.044,5.215,23.179c-3.046,14.055,5.91,27.968,19.965,31.015l30.736,6.664l13.771,36.521l-18.668-4.048
	c0.436-1.037,0.787-2.124,1.034-3.262c2.169-10.005-4.206-19.91-14.213-22.079l-65.673-14.238L76.791,48.252z M26.847,129.866
	c0.257-1.183,1.045-1.843,1.493-2.132c0.447-0.288,1.373-0.733,2.559-0.476l93.145,20.194c1.805,0.391,3,2.247,2.608,4.052
	c-0.39,1.803-2.242,2.994-4.048,2.609l-27.562-5.976c-0.002,0-0.004,0-0.006-0.001l-65.581-14.218
	C27.65,133.527,26.456,131.672,26.847,129.866z"/>
<path d="M504.42,441.556H149.823v-82.753h4.702c4.187,0,7.58-3.394,7.58-7.58v-23.261c0-4.186-3.393-7.58-7.58-7.58H7.58
	c-4.187,0-7.58,3.394-7.58,7.58v23.261c0,4.186,3.393,7.58,7.58,7.58h4.702v82.753H7.58c-4.187,0-7.58,3.394-7.58,7.58v32.165
	c0,4.186,3.393,7.58,7.58,7.58h496.84c4.187,0,7.58-3.394,7.58-7.58v-32.165C512,444.95,508.606,441.556,504.42,441.556z
	 M15.16,335.543h131.785v8.101h-4.702H19.862H15.16V335.543z M27.442,358.804h107.221v82.753H121.14v-48.373
	c0-4.186-3.393-7.58-7.58-7.58H49.071c-4.187,0-7.58,3.394-7.58,7.58v48.373H27.443v-82.753H27.442z M56.651,441.294v-40.529h49.33
	v40.529H56.651z M496.84,473.721H15.16v-17.005h4.702h122.381H496.84V473.721z"/>
</svg>