<svg xmlns="http://www.w3.org/2000/svg" viewBox="0 0 64 64" id="documentation">
  <rect width="28" height="60" x="31" y="2" fill="#4aaee3"></rect>
  <rect width="26" height="58" x="31" y="2" fill="#7fcdf2"></rect>
  <rect width="4" height="60" x="55" y="2" fill="#26669e"></rect>
  <rect width="28" height="20" x="31" y="2" fill="#e99b97"></rect>
  <path fill="#aab1b7" d="M45,15a5,5,0,0,0-5-5H5V62H40a5,5,0,0,0,5-5Z"></path>
  <path fill="#cacbcd" d="M5,10V60H38a5,5,0,0,0,5-5V13a4.95,4.95,0,0,0-.625-2.375A4.95,4.95,0,0,0,40,10Z"></path>
  <rect width="4" height="52" x="5" y="10" fill="#43525b"></rect>
  <rect width="4" height="50" x="5" y="10" fill="#69737a"></rect>
  <circle cx="27" cy="30" r="13" fill="#4aaee3"></circle>
  <path fill="#7fcdf2" d="M27,17a12.937,12.937,0,0,0-8.133,2.867A12.992,12.992,0,0,0,37.133,38.133,12.992,12.992,0,0,0,27,17Z"></path>
  <path fill="#225980" d="M27,16A14,14,0,1,0,41,30,14.015,14.015,0,0,0,27,16ZM15.051,31h4a16.163,16.163,0,0,0,1.12,5h-3.55A11.89,11.89,0,0,1,15.051,31ZM28,22V19.174l.034.03A14.188,14.188,0,0,1,30.513,22Zm3.67,2a14.2,14.2,0,0,1,1.276,5H28V24Zm-5.7-4.8.034-.03V22H23.487A14.188,14.188,0,0,1,25.966,19.2ZM26,24v5H21.054a14.2,14.2,0,0,1,1.276-5Zm-6.946,5h-4a11.89,11.89,0,0,1,1.573-5h3.55A16.163,16.163,0,0,0,19.054,29Zm2,2H26v5H22.33A14.2,14.2,0,0,1,21.054,31ZM26,38v2.826l-.034-.03A14.188,14.188,0,0,1,23.487,38Zm2.034,2.8-.034.03V38h2.513A14.188,14.188,0,0,1,28.034,40.8ZM28,36V31h4.946a14.2,14.2,0,0,1-1.276,5Zm6.946-5h4a11.89,11.89,0,0,1-1.573,5h-3.55A16.163,16.163,0,0,0,34.946,31Zm0-2a16.163,16.163,0,0,0-1.12-5h3.55a11.89,11.89,0,0,1,1.573,5Zm.973-7H32.875a16.192,16.192,0,0,0-2.767-3.577A12,12,0,0,1,35.919,22ZM23.892,18.423A16.192,16.192,0,0,0,21.125,22H18.081A12,12,0,0,1,23.892,18.423ZM18.081,38h3.044a16.192,16.192,0,0,0,2.767,3.577A12,12,0,0,1,18.081,38Zm12.027,3.577A16.192,16.192,0,0,0,32.875,38h3.044A12,12,0,0,1,30.108,41.577Z"></path>
  <rect width="12" height="6" x="21" y="49" fill="#4aaee3"></rect>
  <polyline fill="#18435e" points="51 62 51 54 55 54 55 62"></polyline>
  <rect width="11" height="5" x="21" y="49" fill="#7fcdf2"></rect>
  <rect width="4" height="20" x="55" y="2" fill="#e47971"></rect>
</svg>
