<svg xmlns="http://www.w3.org/2000/svg" fill-rule="evenodd" stroke-linejoin="round" stroke-miterlimit="2" clip-rule="evenodd" viewBox="0 0 32 32" id="email">
  <path fill="#ffa000" d="M30 14.817a3 3 0 0 0-4.708-2.467l-8.723 6.04a1.003 1.003 0 0 1-1.139 0l-8.722-6.04A3 3 0 0 0 2 14.817V29c0 .796.315 1.56.879 2.122A2.996 2.996 0 0 0 5 32h22a2.996 2.996 0 0 0 3-3V14.817Z"></path>
  <path fill="#ffd54f" d="M5 13.085a1 1 0 0 0 .501.867.703.703 0 0 1 .068.043l8.723 6.039a3.002 3.002 0 0 0 3.416 0l8.723-6.039a.703.703 0 0 1 .068-.043 1 1 0 0 0 .501-.867V3c0-.796-.316-1.559-.879-2.121A2.996 2.996 0 0 0 24 0H8c-.796 0-1.559.316-2.121.879A2.996 2.996 0 0 0 5 3v10.085Z"></path>
  <path fill="#ea2d21" d="M16 7a3.001 3.001 0 0 0 0 6 3.001 3.001 0 0 0 0-6Zm0 2a1 1 0 1 1 0 2 1 1 0 0 1 0-2Z"></path>
  <path fill="#ea2d21" d="M17 8v2a1 1 0 0 0 2 0V8a1 1 0 0 0-2 0Z"></path>
  <path fill="#ea2d21" d="M18.266 13.421A4.666 4.666 0 0 1 16 14c-2.472 0-4.5-1.891-4.5-4.25S13.528 5.5 16 5.5c2.471 0 4.5 1.891 4.5 4.25a1 1 0 0 0 2 0c0-3.436-2.9-6.25-6.5-6.25S9.5 6.314 9.5 9.75 12.4 16 16 16a6.673 6.673 0 0 0 3.234-.828 1 1 0 0 0-.968-1.751Z"></path>
  <path fill="#ea2d21" d="M20.5 10c0 .519-.296 1-.75 1s-.75-.481-.75-1a1 1 0 0 0-2 0c0 1.69 1.271 3 2.75 3s2.75-1.31 2.75-3a1 1 0 0 0-2 0Z"></path>
</svg>
